<?xml version="1.0" encoding="UTF-8" standalone="no"?>
<svg
   xmlns:dc="http://purl.org/dc/elements/1.1/"
   xmlns:cc="http://creativecommons.org/ns#"
   xmlns:rdf="http://www.w3.org/1999/02/22-rdf-syntax-ns#"
   xmlns:svg="http://www.w3.org/2000/svg"
   xmlns="http://www.w3.org/2000/svg"
   xmlns:sodipodi="http://sodipodi.sourceforge.net/DTD/sodipodi-0.dtd"
   xmlns:inkscape="http://www.inkscape.org/namespaces/inkscape"
   viewBox="0 0 130.8934 131.33327"
   version="1.1"
   id="svg4562"
   sodipodi:docname="fav_color.svg"
   width="130.8934"
   height="131.33327"
   inkscape:version="0.92.3 (2405546, 2018-03-11)">
  <metadata
     id="metadata4566">
    <rdf:RDF>
      <cc:Work
         rdf:about="">
        <dc:format>image/svg+xml</dc:format>
        <dc:type
           rdf:resource="http://purl.org/dc/dcmitype/StillImage" />
        <dc:title>Asset 1</dc:title>
      </cc:Work>
    </rdf:RDF>
  </metadata>
  <sodipodi:namedview
     pagecolor="#ffffff"
     bordercolor="#666666"
     borderopacity="1"
     objecttolerance="10"
     gridtolerance="10"
     guidetolerance="10"
     inkscape:pageopacity="0"
     inkscape:pageshadow="2"
     inkscape:window-width="1920"
     inkscape:window-height="1017"
     id="namedview4564"
     showgrid="false"
     inkscape:zoom="1.2526968"
     inkscape:cx="111.99518"
     inkscape:cy="147.5209"
     inkscape:window-x="-8"
     inkscape:window-y="-8"
     inkscape:window-maximized="1"
     inkscape:current-layer="Layer_1-2" />
  <defs
     id="defs4520">
    <style
       id="style4518">.cls-1{fill:none;}.cls-2{fill:#33a87e;}.cls-3{fill:#a7a9ac;}</style>
  </defs>
  <title
     id="title4522">Asset 1</title>
  <g
     id="Layer_2"
     data-name="Layer 2"
     transform="translate(0.0257072,-0.00744754)">
    <g
       id="Layer_1-2"
       data-name="Layer 1">
      <path
         class="cls-2"
         d="m 53.34,1.13 c -16.63,3 -30.1,11.69 -40.3,25.21 A 59,59 0 0 0 2.52,48.12 h 20.27 a 7.42,7.42 0 0 0 0.54,-1 45,45 0 0 1 17.52,-20.5 39.35,39.35 0 0 1 15.09,-6.05 v 4 c 0,25.8 0.05,51.61 -0.07,77.41 a 7,7 0 0 0 0.23,2 h 19 a 7.4,7.4 0 0 0 0.15,-1.59 C 75.15,76.31 75.18,50.23 75.18,24.15 v -3.5 a 19.12,19.12 0 0 1 3,0.42 C 92,25.37 102,34.1 108,47.26 a 8.39,8.39 0 0 0 0.46,0.86 h 20.11 C 122.52,22.16 93.52,-6 53.34,1.13 Z"
         id="path4556"
         inkscape:connector-curvature="0"
         style="fill:#33a87e" />
      <path
         class="cls-3"
         d="m 130.84,58.29 c 0,-1.93 -1,-2.63 -3,-2.58 -5.42,0.13 -10.84,0 -16.25,0 -9.06,0 -18.12,0 -27.16,0.07 v 19.57 h 26.39 c -0.93,2.84 -1.57,5.3 -2.53,7.63 -5.6,13.57 -15.58,22.61 -29.48,26.85 -12.88,3.91 -25.28,2.08 -37,-4.69 C 26.7,96.45 17.25,77.14 19.88,59.88 H 0.3 C 0.22,60.44 0.14,61 0.11,61.55 a 64.85,64.85 0 0 0 10.56,39.87 64.46,64.46 0 0 0 29.6,24.68 64.83,64.83 0 0 0 25.84,5.24 v 0 a 62.78,62.78 0 0 0 9.87,-0.9 65.22,65.22 0 0 0 29.81,-13 c 13.48,-10.61 21.82,-24.41 24.48,-41.34 0.93,-5.83 0.47,-11.87 0.57,-17.81 z"
         id="path4558"
         inkscape:connector-curvature="0"
         style="fill:#a7a9ac" />
    </g>
  </g>
</svg>
