<svg xmlns="http://www.w3.org/2000/svg" viewBox="0 0 574.76 131.34"><defs><style>.cls-1{fill:none;}.cls-2{fill:#33a87e;}.cls-3{fill:#a7a9ac;}</style></defs><title>Asset 1</title><g id="Layer_2" data-name="Layer 2"><g id="Layer_1-2" data-name="Layer 1"><path class="cls-1" d="M248.64,43.19c-2.59,0-3.88,1.19-3.88,3.55V64.28h7.76V46.74C252.52,44.38,251.23,43.19,248.64,43.19Z"/><path class="cls-1" d="M520.77,44.15H519V86.81h1.79q6,0,6-3.65V47.79C526.74,45.37,524.75,44.15,520.77,44.15Z"/><path class="cls-2" d="M178.91,84.41c0,2.36-1.28,3.55-3.84,3.55s-3.83-1.19-3.83-3.55V57.48h17.64V50.1H171.24V37.63H157.82V84.12q0,11,17.25,11t17.26-11V71.85H178.91Z"/><polygon class="cls-2" points="197.12 93.61 226.74 93.61 226.74 85.94 210.54 85.94 210.54 66.77 226.35 66.77 226.35 59.39 210.54 59.39 210.54 45.3 226.74 45.3 226.74 37.73 197.12 37.73 197.12 93.61"/><path class="cls-2" d="M259.8,38.31A25.7,25.7,0,0,0,248.69,36a26,26,0,0,0-11.22,2.31q-6.14,3-6.13,8.62V93.61h13.42V71.47h7.76V93.61h13.42V46.93Q265.94,41.27,259.8,38.31Zm-7.28,26h-7.76V46.74c0-2.36,1.29-3.55,3.88-3.55s3.88,1.19,3.88,3.55Z"/><path class="cls-2" d="M288.17,36q-17.25,0-17.25,10.64V84.12q0,11,17.25,11t17.26-11V71.85H292V84.41c0,2.36-1.28,3.55-3.84,3.55s-3.83-1.19-3.83-3.55V46q0-3.45,3.83-3.45T292,46V58.34h13.42V49.62Q305.43,36,288.17,36Z"/><polygon class="cls-2" points="331.02 59.01 323.64 59.01 323.64 37.63 310.22 37.63 310.22 93.61 323.64 93.61 323.64 66.77 331.02 66.77 331.02 93.61 344.44 93.61 344.44 37.63 331.02 37.63 331.02 59.01"/><path class="cls-2" d="M349.71,50.07V93.61h13.42V50.07a9.74,9.74,0,0,1-13.42,0Z"/><path class="cls-2" d="M396.67,38.31A25.7,25.7,0,0,0,385.56,36a26,26,0,0,0-11.22,2.31q-6.13,3-6.13,8.62V93.61h13.42V46.73q0-3.54,3.88-3.54c2.58,0,3.88,1.18,3.88,3.54V93.61h13.42V46.93Q402.81,41.27,396.67,38.31Z"/><path class="cls-3" d="M436.26,38.31A25.74,25.74,0,0,0,425.14,36,24.94,24.94,0,0,0,414,38.31q-6.22,3.06-6.23,8.62v37a10,10,0,0,0,4.7,8.53,16.45,16.45,0,0,0,9.68,2.88,15.22,15.22,0,0,0,12.08-5.18l1.15,3.45h7V65.24H423.32v7H429V84.41c0,2.36-1.29,3.55-3.88,3.55s-3.88-1.19-3.88-3.55V46.26q0-3.45,3.88-3.45T429,46.26V58.34h13.42V46.93Q442.39,41.27,436.26,38.31Z"/><path class="cls-3" d="M468.46,84.41c0,2.36-1.29,3.55-3.88,3.55s-3.88-1.19-3.88-3.55V37.63H447.28V84.12q0,5.56,6.23,8.63a27,27,0,0,0,22.24,0q6.13-3,6.13-8.63V37.63H468.46Z"/><path class="cls-3" d="M493.19,52.75A9.71,9.71,0,0,1,487,50.47V93.61h13.42v-44A9.75,9.75,0,0,1,493.19,52.75Z"/><path class="cls-3" d="M523.38,37.63H505.56v56h17.73q16.86,0,16.87-12.17V49.9Q540.16,37.63,523.38,37.63Zm3.36,45.53q0,3.65-6,3.65H519V44.15h1.79c4,0,6,1.22,6,3.64Z"/><polygon class="cls-3" points="574.76 45.3 574.76 37.73 545.14 37.73 545.14 93.61 574.76 93.61 574.76 85.94 558.56 85.94 558.56 66.77 574.38 66.77 574.38 59.39 558.56 59.39 558.56 45.3 574.76 45.3"/><path class="cls-3" d="M356.42,30.26a8.87,8.87,0,1,0,8.89,8.89A8.89,8.89,0,0,0,356.42,30.26Z"/><rect class="cls-3" x="486.96" y="37.63" width="13.42" height="55.98"/><path class="cls-2" d="M53.34,1.13c-16.63,3-30.1,11.69-40.3,25.21A59,59,0,0,0,2.52,48.12H22.79a7.42,7.42,0,0,0,.54-1A45,45,0,0,1,40.85,26.62a39.35,39.35,0,0,1,15.09-6.05v4c0,25.8.05,51.61-.07,77.41a7,7,0,0,0,.23,2h19a7.4,7.4,0,0,0,.15-1.59c-.1-26.08-.07-52.16-.07-78.24V20.65a19.12,19.12,0,0,1,3,.42C92,25.37,102,34.1,108,47.26a8.39,8.39,0,0,0,.46.86h20.11C122.52,22.16,93.52-6,53.34,1.13Z"/><path class="cls-3" d="M130.84,58.29c0-1.93-1-2.63-3-2.58-5.42.13-10.84,0-16.25,0-9.06,0-18.12,0-27.16.07V75.35h26.39c-.93,2.84-1.57,5.3-2.53,7.63-5.6,13.57-15.58,22.61-29.48,26.85-12.88,3.91-25.28,2.08-37-4.69-15.11-8.69-24.56-28-21.93-45.26H.3C.22,60.44.14,61,.11,61.55a64.85,64.85,0,0,0,10.56,39.87,64.46,64.46,0,0,0,29.6,24.68,64.83,64.83,0,0,0,25.84,5.24h0a62.78,62.78,0,0,0,9.87-.9,65.22,65.22,0,0,0,29.81-13c13.48-10.61,21.82-24.41,24.48-41.34C131.2,70.27,130.74,64.23,130.84,58.29Z"/></g></g></svg>